<svg width="512" height="512" viewBox="0 0 512 512" xmlns="http://www.w3.org/2000/svg" role="img" aria-label="Forge ML">
  <defs>
    <linearGradient id="bg" x1="0" y1="0" x2="0" y2="1">
      <stop offset="0" stop-color="#1E1E25"/>
      <stop offset="1" stop-color="#121216"/>
    </linearGradient>
    <linearGradient id="heat" x1="0.5" y1="0" x2="0.5" y2="1">
      <stop offset="0" stop-color="#FFCB7A"/>
      <stop offset="0.5" stop-color="#FF7A33"/>
      <stop offset="1" stop-color="#D42B25"/>
    </linearGradient>
    <radialGradient id="forgeGlow" cx="0.5" cy="0.5" r="0.5">
      <stop offset="0" stop-color="#FF5A2C" stop-opacity="0.45"/>
      <stop offset="0.6" stop-color="#FF5A2C" stop-opacity="0.10"/>
      <stop offset="1" stop-color="#FF5A2C" stop-opacity="0"/>
    </radialGradient>
    <linearGradient id="edge" x1="0.5" y1="1" x2="0.5" y2="0">
      <stop offset="0" stop-color="#FF7A33"/>
      <stop offset="1" stop-color="#FFCB7A"/>
    </linearGradient>
  </defs>

  <rect x="0" y="0" width="512" height="512" rx="112" fill="url(#bg)"/>
  <rect x="3" y="3" width="506" height="506" rx="109" fill="none" stroke="#FF7A33" stroke-opacity="0.16" stroke-width="2"/>

  <ellipse cx="256" cy="300" rx="176" ry="150" fill="url(#forgeGlow)"/>

  <g stroke="url(#edge)" stroke-width="7" stroke-linecap="round" stroke-linejoin="round" fill="none" opacity="0.9">
    <path d="M256 150 L198 196"/>
    <path d="M256 150 L314 196"/>
    <path d="M198 196 L314 196"/>
    <path d="M198 196 L224 250"/>
    <path d="M314 196 L288 250"/>
  </g>
  <g fill="#FFD79A">
    <circle cx="198" cy="196" r="15" fill="#FF8A3D" opacity="0.30"/>
    <circle cx="198" cy="196" r="8.5"/>
    <circle cx="314" cy="196" r="15" fill="#FF8A3D" opacity="0.30"/>
    <circle cx="314" cy="196" r="8.5"/>
    <circle cx="256" cy="150" r="20" fill="#FF8A3D" opacity="0.32"/>
    <circle cx="256" cy="150" r="11"/>
  </g>

  <g transform="translate(256,311.5) scale(1.15) translate(-256,-311.5)">
    <g fill="url(#heat)">
      <path d="M150 252 L362 252 Q374 252 374 264 L374 286 L138 286 L138 264 Q138 252 150 252 Z"/>
      <path d="M232 286 L280 286 L280 316 L338 360 Q343 371 332 371 L180 371 Q169 371 174 360 L232 316 Z"/>
    </g>
    <path d="M150 258 L362 258" fill="none" stroke="#FFE1B0" stroke-opacity="0.5" stroke-width="4" stroke-linecap="round"/>
  </g>
</svg>
